<?xml version="1.0" encoding="utf-8"?>
<!-- Generator: Adobe Illustrator 15.0.2, SVG Export Plug-In . SVG Version: 6.00 Build 0)  -->
<!DOCTYPE svg PUBLIC "-//W3C//DTD SVG 1.1//EN" "http://www.w3.org/Graphics/SVG/1.1/DTD/svg11.dtd">
<svg version="1.1" id="Layer_1" xmlns="http://www.w3.org/2000/svg" xmlns:xlink="http://www.w3.org/1999/xlink" x="0px" y="0px"
	 width="694.891px" height="70.072px" viewBox="0 0 694.891 70.072" enable-background="new 0 0 694.891 70.072" 
	 xml:space="preserve">
<g>
	<path fill="#FFFFFF" d="M12.075,55.613V41.696c2.402,3.281,5,4.921,7.793,4.921c1.055,0,1.914-0.268,2.578-0.805
		c0.664-0.537,0.996-1.211,0.996-2.021c0-1.168-0.723-2.308-2.168-3.419l-1.992-1.498c-1.329-0.961-2.461-1.917-3.398-2.869
		c-0.938-0.951-1.699-1.931-2.285-2.939c-0.586-1.008-1.016-2.049-1.289-3.123c-0.274-1.074-0.41-2.204-0.41-3.391
		c0-2.035,0.488-4.164,1.465-6.387c0.488-1.037,1.055-1.983,1.699-2.84c0.645-0.857,1.387-1.616,2.227-2.275
		c2.304-1.884,5.087-2.826,8.35-2.826c2.91,0,5.84,0.75,8.789,2.248v13.573c-0.996-1.542-2.129-2.758-3.398-3.647
		c-1.27-0.889-2.52-1.333-3.75-1.333c-0.938,0-1.709,0.264-2.314,0.791c-0.625,0.509-0.938,1.121-0.938,1.835
		c0,1.167,0.83,2.326,2.49,3.474l1.934,1.383c2.578,1.789,4.424,3.625,5.537,5.506c1.132,1.883,1.699,4.086,1.699,6.608
		c0,4.293-1.358,7.832-4.072,10.618c-2.715,2.786-6.152,4.179-10.312,4.179C18.433,57.457,15.356,56.843,12.075,55.613z"/>
	<path fill="#FFFFFF" d="M57.887,57.457H45.67V23.063h-6.738v-10.84h25.957v10.84h-7.002V57.457z"/>
	<path fill="#FFFFFF" d="M87.992,12.223h12.217v31.443c0,2.629-0.42,4.76-1.26,6.392c-0.82,1.708-2.188,3.254-4.102,4.636
		c-2.578,1.844-5.713,2.764-9.404,2.764c-4.18,0-7.686-1.017-10.518-3.051c-3.594-2.592-5.391-6.738-5.391-12.439V12.223h12.217
		V41.23c0,1.961,0.239,3.349,0.718,4.165c0.479,0.816,1.284,1.223,2.417,1.223c1.172,0,1.982-0.378,2.432-1.135
		c0.449-0.797,0.674-2.204,0.674-4.223V12.223z"/>
	<path fill="#FFFFFF" d="M108.091,57.457V12.223h10.547c6.035,0,10.732,1.622,14.092,4.863c4.414,4.238,6.621,10.166,6.621,17.783
		c0,7.5-1.865,13.291-5.596,17.373c-3.184,3.477-7.93,5.215-14.238,5.215H108.091z M120.308,46.617
		c4.375-0.215,6.562-3.984,6.562-11.308c0-3.613-0.557-6.464-1.67-8.555c-1.113-2.109-2.618-3.164-4.512-3.164h-0.381V46.617z"/>
	<path fill="#FFFFFF" d="M158.156,57.457h-12.217V12.223h12.217V57.457z"/>
	<path fill="#FFFFFF" d="M199.14,34.996c0,6.658-1.572,12.07-4.717,16.238c-3.125,4.148-7.197,6.223-12.217,6.223
		c-4.453,0-8.271-1.593-11.455-4.78c-4.004-4.036-6.006-10.09-6.006-18.162c0-7.732,2.09-13.645,6.27-17.737
		c3.105-3.036,6.787-4.555,11.045-4.555c5.215,0,9.365,2.056,12.451,6.167C197.597,22.502,199.14,28.037,199.14,34.996z
		 M186.454,35.099c0-8.024-1.445-12.036-4.336-12.036c-1.445,0-2.598,1.053-3.457,3.16c-0.84,1.953-1.26,4.826-1.26,8.617
		c0,3.734,0.396,6.631,1.188,8.689c0.791,2.059,1.889,3.088,3.295,3.088c1.445,0,2.559-1.014,3.34-3.045
		C186.044,41.543,186.454,38.718,186.454,35.099z"/>
	<path fill="#FFFFFF" d="M226.002,57.457V12.223h10.547c6.035,0,10.732,1.622,14.092,4.863c4.413,4.238,6.621,10.166,6.621,17.783
		c0,7.5-1.865,13.291-5.596,17.373c-3.184,3.477-7.93,5.215-14.238,5.215H226.002z M238.219,46.617
		c4.375-0.215,6.562-3.984,6.562-11.308c0-3.613-0.557-6.464-1.67-8.555c-1.113-2.109-2.618-3.164-4.512-3.164h-0.381V46.617z"/>
	<path fill="#FFFFFF" d="M263.778,57.457V12.223h22.705v10.84h-10.488v5.771h9.404v10.84h-9.404v6.943h10.488v10.84H263.778z"/>
	<path fill="#FFFFFF" d="M325.562,57.457h-12.217V12.223h11.836c5.898,0,10.273,1.201,13.125,3.604
		c3.359,2.832,5.039,6.768,5.039,11.807c0,5.489-1.787,9.58-5.361,12.275c-2.441,1.816-5.947,2.724-10.518,2.724h-1.904V57.457z
		 M325.562,33.112l0.557,0.029c1.483,0,2.666-0.454,3.545-1.362s1.318-2.153,1.318-3.735c0-1.562-0.43-2.832-1.289-3.809
		c-0.86-0.996-1.953-1.494-3.281-1.494h-0.85V33.112z"/>
	<path fill="#FFFFFF" d="M379.229,57.457h-12.627l-0.908-5.742h-8.232l-0.996,5.742h-12.627l10.869-45.234h14.941L379.229,57.457z
		 M364.258,42.194l-0.791-5.273c-0.02-0.019-0.059-0.283-0.117-0.791c-0.039-0.429-0.244-2.128-0.615-5.098
		c-0.039-0.332-0.088-0.786-0.146-1.362c-0.059-0.576-0.137-1.304-0.234-2.183l-0.381-4.277c-0.039,0.41-0.093,0.869-0.161,1.377
		c-0.068,0.508-0.142,1.065-0.22,1.67c-0.137,1.211-0.234,2.051-0.293,2.52s-0.098,0.752-0.117,0.85l-0.85,5.479l-1.23,7.09H364.258
		z"/>
	<path fill="#FFFFFF" d="M418.148,57.457h-12.627l-0.908-5.742h-8.232l-0.996,5.742h-12.627l10.869-45.234h14.941L418.148,57.457z
		 M403.178,42.194l-0.791-5.273c-0.02-0.019-0.059-0.283-0.117-0.791c-0.039-0.429-0.244-2.128-0.615-5.098
		c-0.039-0.332-0.088-0.786-0.146-1.362c-0.059-0.576-0.137-1.304-0.234-2.183l-0.381-4.277c-0.039,0.41-0.093,0.869-0.161,1.377
		c-0.068,0.508-0.142,1.065-0.22,1.67c-0.137,1.211-0.234,2.051-0.293,2.52s-0.098,0.752-0.117,0.85l-0.85,5.479l-1.23,7.09H403.178
		z"/>
	<path fill="#FFFFFF" d="M455.133,57.457H441.92l-6.035-16.113c-0.059-0.273-0.161-0.634-0.308-1.084
		c-0.146-0.449-0.327-0.986-0.542-1.611l0.088,2.988v15.82h-12.158V12.223h12.51c5.508,0,9.629,1.084,12.363,3.252
		c3.477,2.773,5.215,6.719,5.215,11.836c0,5.469-2.334,9.248-7.002,11.338L455.133,57.457z M435.182,32.526h0.82
		c1.406,0,2.578-0.537,3.516-1.611c0.938-1.074,1.406-2.441,1.406-4.102c0-3.379-1.768-5.068-5.303-5.068h-0.439V32.526z"/>
	<path fill="#FFFFFF" d="M460.172,57.457V12.223h10.547c6.035,0,10.732,1.622,14.092,4.863c4.414,4.238,6.621,10.166,6.621,17.783
		c0,7.5-1.865,13.291-5.596,17.373c-3.184,3.477-7.93,5.215-14.238,5.215H460.172z M472.389,46.617
		c4.375-0.215,6.562-3.984,6.562-11.308c0-3.613-0.557-6.464-1.67-8.555c-1.113-2.109-2.617-3.164-4.512-3.164h-0.381V46.617z"/>
	<path fill="#FFFFFF" d="M497.948,57.457V12.223h22.705v10.84h-10.488v5.771h9.404v10.84h-9.404v6.943h10.488v10.84H497.948z"/>
	<path fill="#FFFFFF" d="M527.914,57.457V12.223h11.66l6.123,15.879c0.332,0.938,0.708,2.012,1.128,3.223
		c0.42,1.211,0.884,2.607,1.392,4.189l1.26,3.984c-0.449-3.926-0.791-7.285-1.025-10.078c-0.234-2.793-0.352-5.137-0.352-7.031
		V12.223h11.777v45.234H548.1l-6.522-16.64c-0.684-1.777-1.3-3.442-1.848-4.995c-0.549-1.553-1.03-3.032-1.444-4.438
		c0.487,3.184,0.843,5.958,1.068,8.32c0.226,2.363,0.338,4.434,0.338,6.21v11.543H527.914z"/>
	<path fill="#FFFFFF" d="M567.054,55.613V41.696c2.402,3.281,5,4.921,7.793,4.921c1.055,0,1.914-0.268,2.578-0.805
		s0.996-1.211,0.996-2.021c0-1.168-0.723-2.308-2.168-3.419l-1.992-1.498c-1.328-0.961-2.461-1.917-3.398-2.869
		c-0.938-0.951-1.699-1.931-2.285-2.939c-0.586-1.008-1.016-2.049-1.289-3.123c-0.273-1.074-0.41-2.204-0.41-3.391
		c0-2.035,0.488-4.164,1.465-6.387c0.488-1.037,1.055-1.983,1.699-2.84c0.645-0.857,1.387-1.616,2.227-2.275
		c2.305-1.884,5.088-2.826,8.35-2.826c2.91,0,5.84,0.75,8.789,2.248v13.573c-0.996-1.542-2.129-2.758-3.398-3.647
		c-1.27-0.889-2.52-1.333-3.75-1.333c-0.938,0-1.709,0.264-2.314,0.791c-0.625,0.509-0.938,1.121-0.938,1.835
		c0,1.167,0.83,2.326,2.49,3.474l1.934,1.383c2.578,1.789,4.424,3.625,5.537,5.506c1.133,1.883,1.699,4.086,1.699,6.608
		c0,4.293-1.357,7.832-4.072,10.618s-6.152,4.179-10.312,4.179C573.411,57.457,570.335,56.843,567.054,55.613z"/>
	<path fill="#FFFFFF" d="M612.865,57.457h-12.217V23.063h-6.738v-10.84h25.957v10.84h-7.002V57.457z"/>
	<path fill="#FFFFFF" d="M655.033,57.457h-12.627l-0.908-5.742h-8.232l-0.996,5.742h-12.627l10.869-45.234h14.941L655.033,57.457z
		 M640.062,42.194l-0.791-5.273c-0.02-0.019-0.059-0.283-0.117-0.791c-0.039-0.429-0.244-2.128-0.615-5.098
		c-0.039-0.332-0.088-0.786-0.146-1.362c-0.059-0.576-0.137-1.304-0.234-2.183l-0.381-4.277c-0.039,0.41-0.093,0.869-0.161,1.377
		c-0.068,0.508-0.142,1.065-0.22,1.67c-0.137,1.211-0.234,2.051-0.293,2.52s-0.098,0.752-0.117,0.85l-0.85,5.479l-1.23,7.09H640.062
		z"/>
	<path fill="#FFFFFF" d="M681.237,57.457h-21.387V12.223h12.217v34.394h9.17V57.457z"/>
</g>
</svg>
